<svg width="250" height="73" viewBox="0 0 250 73" fill="none" xmlns="http://www.w3.org/2000/svg">
<path d="M76.6534 42.52V43.8756H67.8431V42.52L70.3538 42.1811C70.6887 42.1164 70.9319 42.0521 71.0842 41.9874C71.2364 41.8906 71.3734 41.6807 71.495 41.358C71.6166 41.0354 71.7842 40.5187 71.9971 39.8088L80.7161 10.9537H84.6419L93.4066 39.8088C93.6195 40.5187 93.7871 41.0354 93.9087 41.358C94.0303 41.6807 94.1673 41.8906 94.3195 41.9874C94.5021 42.0521 94.7457 42.1164 95.0499 42.1811L97.5606 42.52V43.8756H84.9615V42.52L87.4722 42.1811C87.959 42.1164 88.2179 41.9874 88.2482 41.7938C88.3092 41.568 88.1723 40.9061 87.8374 39.8088L86.1027 33.8054H75.5578L73.7775 39.8088C73.4732 40.9061 73.3363 41.568 73.3666 41.7938C73.3969 41.9874 73.6558 42.1164 74.1427 42.1811L76.6534 42.52ZM76.1056 32.1109H85.6006L80.8987 16.0373L76.1056 32.1109ZM125.618 12.3093V10.9537H134.474V12.3093L131.963 12.6482C131.476 12.7128 131.187 12.8581 131.096 13.084C131.005 13.2776 130.959 13.9232 130.959 15.0206V32.6919C130.959 36.565 130.183 39.4861 128.631 41.4549C127.109 43.3915 124.766 44.3597 121.601 44.3597C117.919 44.3597 114.951 43.2946 112.699 41.1644C110.447 39.0342 109.321 35.9679 109.321 31.9656V15.0206C109.321 13.9232 109.276 13.2776 109.184 13.084C109.093 12.8581 108.804 12.7128 108.317 12.6482L105.806 12.3093V10.9537H118.314V12.3093L115.804 12.6482C115.317 12.7128 115.027 12.8581 114.936 13.084C114.845 13.2776 114.799 13.9232 114.799 15.0206V32.3045C114.799 35.9195 115.423 38.5337 116.671 40.1477C117.919 41.7616 119.699 42.5684 122.012 42.5684C124.264 42.5684 126.014 41.81 127.261 40.2929C128.509 38.7437 129.133 36.2423 129.133 32.7887V15.0206C129.133 13.9232 129.087 13.2776 128.996 13.084C128.905 12.8581 128.616 12.7128 128.129 12.6482L125.618 12.3093ZM146.872 12.3093V10.9537H160.658C163.853 10.9537 166.318 11.7122 168.053 13.2292C169.788 14.7462 170.655 16.7796 170.655 19.3294V20.443C170.655 22.3796 170.153 24.0257 169.149 25.3813C168.144 26.7369 166.699 27.7052 164.812 28.2861L170.518 39.8088C170.883 40.5187 171.157 41.0354 171.34 41.358C171.522 41.6807 171.69 41.8906 171.842 41.9874C172.025 42.0521 172.268 42.1164 172.572 42.1811L174.627 42.52V43.8756H166.09L159.197 28.8671H155.865V39.8088C155.865 40.9061 155.91 41.568 156.002 41.7938C156.093 41.9874 156.382 42.1164 156.869 42.1811L159.38 42.52V43.8756H146.872V42.52L149.383 42.1811C149.869 42.1164 150.159 41.9874 150.25 41.7938C150.341 41.568 150.387 40.9061 150.387 39.8088V15.0206C150.387 13.9232 150.341 13.2776 150.25 13.084C150.159 12.8581 149.869 12.7128 149.383 12.6482L146.872 12.3093ZM160.658 12.6482H155.865V27.1726H160.658C161.997 27.1726 163.016 26.7369 163.716 25.8654C164.447 24.9617 164.812 23.3156 164.812 20.9271V18.8453C164.812 16.4568 164.447 14.8269 163.716 13.9554C163.016 13.084 161.997 12.6482 160.658 12.6482ZM207.054 35.5483H208.332V43.8756H185.736V42.52L188.247 42.1811C188.734 42.1164 189.023 41.9874 189.114 41.7938C189.205 41.568 189.251 40.9061 189.251 39.8088V15.0206C189.251 13.9232 189.205 13.2776 189.114 13.084C189.023 12.8581 188.734 12.7128 188.247 12.6482L185.736 12.3093V10.9537H207.876V19.281H206.598L205.137 13.907C205.046 13.5197 204.939 13.2454 204.817 13.084C204.726 12.8903 204.528 12.7773 204.224 12.7451C203.92 12.6805 203.402 12.6482 202.672 12.6482H194.729V26.398H199.933C200.663 26.398 201.181 26.3818 201.485 26.3496C201.789 26.285 201.987 26.172 202.078 26.0106C202.2 25.817 202.307 25.5265 202.398 25.1392L203.402 21.2176H204.68V33.2728H203.402L202.398 29.3512C202.307 28.9639 202.2 28.6896 202.078 28.5282C201.987 28.3345 201.789 28.2216 201.485 28.1893C201.181 28.1247 200.663 28.0925 199.933 28.0925H194.729V42.1811H203.128C203.859 42.1811 204.376 42.1648 204.68 42.1327C204.985 42.068 205.183 41.9553 205.274 41.7938C205.396 41.6001 205.502 41.3096 205.593 40.9223L207.054 35.5483ZM228.945 42.52V43.8756H220.134V42.52L222.645 42.1811C222.98 42.1164 223.223 42.0521 223.376 41.9874C223.528 41.8906 223.665 41.6807 223.786 41.358C223.908 41.0354 224.076 40.5187 224.289 39.8088L233.008 10.9537H236.933L245.698 39.8088C245.911 40.5187 246.078 41.0354 246.2 41.358C246.322 41.6807 246.459 41.8906 246.611 41.9874C246.794 42.0521 247.037 42.1164 247.341 42.1811L249.852 42.52V43.8756H237.253V42.52L239.764 42.1811C240.25 42.1164 240.509 41.9874 240.54 41.7938C240.601 41.568 240.464 40.9061 240.129 39.8088L238.394 33.8054H227.849L226.069 39.8088C225.765 40.9061 225.628 41.568 225.658 41.7938C225.688 41.9874 225.947 42.1164 226.434 42.1811L228.945 42.52ZM228.397 32.1109H237.892L233.19 16.0373L228.397 32.1109Z" fill="white"/>
<path d="M73.4551 67.0269V67.7047H69.0499V67.0269L70.3053 66.8575C70.4725 66.8253 70.5945 66.7928 70.6705 66.7606C70.7464 66.7122 70.8149 66.6074 70.8759 66.4459C70.9369 66.2844 71.0203 66.0265 71.127 65.6713L75.4864 51.2438H77.4494L81.8317 65.6713C81.9383 66.0265 82.0218 66.2844 82.0827 66.4459C82.1437 66.6074 82.2122 66.7122 82.2882 66.7606C82.3795 66.7928 82.5011 66.8253 82.6533 66.8575L83.9087 67.0269V67.7047H77.6091V67.0269L78.8645 66.8575C79.1081 66.8253 79.2372 66.7606 79.2525 66.6638C79.2828 66.5507 79.2143 66.2201 79.0471 65.6713L78.1797 62.6696H72.9073L72.0171 65.6713C71.8648 66.2201 71.7964 66.5507 71.8117 66.6638C71.827 66.7606 71.9561 66.8253 72.1997 66.8575L73.4551 67.0269ZM73.1812 61.8224H77.9287L75.5777 53.7855L73.1812 61.8224ZM98.4404 51.9216V51.2438H104.694V51.9216L103.439 52.091C103.195 52.1232 103.051 52.1958 103.005 52.3089C102.96 52.4057 102.937 52.7284 102.937 53.2772V65.6713C102.937 66.2201 102.96 66.5507 103.005 66.6638C103.051 66.7606 103.195 66.8253 103.439 66.8575L104.694 67.0269V67.7047H98.4404V67.0269L99.6958 66.8575C99.9394 66.8253 100.084 66.7606 100.129 66.6638C100.175 66.5507 100.198 66.2201 100.198 65.6713V53.2772C100.198 52.7284 100.175 52.4057 100.129 52.3089C100.084 52.1958 99.9394 52.1232 99.6958 52.091L98.4404 51.9216ZM120.36 51.9216V51.2438H127.253C128.851 51.2438 130.083 51.6232 130.951 52.3815C131.818 53.1399 132.252 54.1566 132.252 55.4316V55.9884C132.252 56.9567 132.001 57.7797 131.499 58.4575C130.996 59.1353 130.274 59.6195 129.33 59.91L132.183 65.6713C132.366 66.0265 132.503 66.2844 132.594 66.4459C132.685 66.6074 132.769 66.7122 132.845 66.7606C132.937 66.7928 133.058 66.8253 133.21 66.8575L134.238 67.0269V67.7047H129.969L126.523 60.2005H124.857V65.6713C124.857 66.2201 124.879 66.5507 124.925 66.6638C124.971 66.7606 125.115 66.8253 125.359 66.8575L126.614 67.0269V67.7047H120.36V67.0269L121.616 66.8575C121.859 66.8253 122.004 66.7606 122.049 66.6638C122.095 66.5507 122.118 66.2201 122.118 65.6713V53.2772C122.118 52.7284 122.095 52.4057 122.049 52.3089C122.004 52.1958 121.859 52.1232 121.616 52.091L120.36 51.9216ZM127.253 52.091H124.857V59.3532H127.253C127.923 59.3532 128.432 59.1353 128.782 58.6996C129.148 58.2476 129.33 57.4246 129.33 56.2305V55.1896C129.33 53.9955 129.148 53.1804 128.782 52.7446C128.432 52.3089 127.923 52.091 127.253 52.091ZM161.695 67.7047L157.951 54.4876L154.414 67.7047H152.428L149.255 53.2772C149.179 52.9061 149.118 52.6478 149.073 52.5026C149.027 52.3411 148.959 52.2363 148.867 52.1879C148.791 52.1395 148.669 52.1073 148.502 52.091L147.247 51.9216V51.2438H153.569V51.9216L152.314 52.091C152.07 52.1232 151.941 52.1879 151.926 52.2847C151.91 52.3815 151.956 52.7125 152.063 53.2772L154.437 64.5578L157.929 51.2438H159.823L163.544 64.3157L165.963 53.2772C166.085 52.7125 166.13 52.3815 166.1 52.2847C166.07 52.1879 165.94 52.1232 165.712 52.091L164.456 51.9216V51.2438H168.884V51.9216L167.629 52.091C167.462 52.1073 167.34 52.1395 167.264 52.1879C167.188 52.2363 167.119 52.3411 167.058 52.5026C167.013 52.6478 166.952 52.9061 166.876 53.2772L163.703 67.7047H161.695ZM185.384 67.0269V67.7047H180.979V67.0269L182.235 66.8575C182.402 66.8253 182.524 66.7928 182.6 66.7606C182.676 66.7122 182.744 66.6074 182.805 66.4459C182.866 66.2844 182.95 66.0265 183.056 65.6713L187.416 51.2438H189.379L193.761 65.6713C193.868 66.0265 193.951 66.2844 194.012 66.4459C194.073 66.6074 194.142 66.7122 194.218 66.7606C194.309 66.7928 194.43 66.8253 194.583 66.8575L195.838 67.0269V67.7047H189.539V67.0269L190.794 66.8575C191.037 66.8253 191.167 66.7606 191.182 66.6638C191.212 66.5507 191.144 66.2201 190.976 65.6713L190.109 62.6696H184.837L183.947 65.6713C183.794 66.2201 183.726 66.5507 183.741 66.6638C183.756 66.7606 183.886 66.8253 184.129 66.8575L185.384 67.0269ZM185.111 61.8224H189.858L187.507 53.7855L185.111 61.8224ZM217.963 67.0269V67.7047H211.709V67.0269L212.965 66.8575C213.208 66.8253 213.353 66.7606 213.398 66.6638C213.444 66.5507 213.467 66.2201 213.467 65.6713V60.6604L209.838 53.2772C209.655 52.9061 209.518 52.6478 209.427 52.5026C209.336 52.3411 209.244 52.2363 209.153 52.1879C209.077 52.1395 208.963 52.1073 208.811 52.091L207.555 51.9216V51.2438H214.06V51.9216L212.805 52.091C212.577 52.1232 212.463 52.1958 212.463 52.3089C212.463 52.4057 212.584 52.7284 212.828 53.2772L215.772 59.5227L218.831 53.2772C219.089 52.7446 219.211 52.422 219.196 52.3089C219.196 52.1958 219.082 52.1232 218.853 52.091L217.598 51.9216V51.2438H222.049V51.9216L220.793 52.091C220.641 52.1073 220.52 52.1395 220.428 52.1879C220.352 52.2363 220.269 52.3411 220.177 52.5026C220.101 52.6478 219.972 52.9061 219.789 53.2772L216.206 60.612V65.6713C216.206 66.2201 216.229 66.5507 216.274 66.6638C216.32 66.7606 216.464 66.8253 216.708 66.8575L217.963 67.0269ZM241.797 67.0995C242.71 67.0995 243.464 66.8737 244.057 66.4217C244.666 65.9538 244.97 65.2276 244.97 64.2431C244.97 63.5169 244.765 62.9117 244.354 62.4275C243.958 61.9434 243.243 61.5398 242.208 61.2172L240.086 60.5394C239.02 60.2005 238.199 59.6195 237.621 58.7964C237.057 57.9571 236.776 56.9162 236.776 55.6737C236.776 54.8507 236.951 54.084 237.301 53.374C237.666 52.6641 238.214 52.091 238.944 51.6553C239.69 51.2196 240.626 51.0017 241.752 51.0017C242.984 51.0017 243.981 51.2438 244.742 51.7279C245.502 52.1958 246.035 52.8093 246.34 53.5677C246.644 54.326 246.72 55.1411 246.568 56.0126L243.943 56.521C244.187 55.0201 244.08 53.8661 243.623 53.0593C243.182 52.2525 242.459 51.849 241.455 51.849C240.679 51.849 240.055 52.091 239.583 52.5752C239.127 53.0593 238.899 53.7534 238.899 54.657C238.899 55.3995 239.097 56.0531 239.492 56.6178C239.903 57.1825 240.572 57.6182 241.501 57.925L243.623 58.6028C244.78 58.958 245.647 59.4985 246.225 60.2247C246.803 60.9346 247.093 61.9271 247.093 63.2022C247.093 64.1058 246.895 64.9209 246.499 65.6471C246.119 66.3571 245.533 66.9221 244.742 67.3416C243.966 67.7452 242.992 67.9468 241.82 67.9468C240.968 67.9468 240.162 67.8178 239.401 67.5595C238.64 67.2852 238.001 66.8412 237.484 66.2281C236.981 65.6149 236.662 64.7836 236.525 63.7347L238.054 63.1538C238.13 64.1867 238.343 64.9935 238.693 65.5745C239.058 66.1392 239.507 66.5348 240.04 66.7606C240.588 66.9864 241.174 67.0995 241.797 67.0995Z" fill="#D19924"/>
<path fill-rule="evenodd" clip-rule="evenodd" d="M48.5506 40.5233C50.8292 40.0815 53.8827 39.9268 57.6405 39.9953L57.7054 40.3595C55.7443 41.2144 54.3356 41.9266 53.2015 42.761C52.082 43.5844 51.225 44.5308 50.373 45.8622C49.9733 50.7267 48.2514 54.351 44.439 57.6859C40.6273 61.0204 34.7248 64.066 25.9768 67.7954L25.8347 67.856L25.7567 67.7164L21.5944 60.2545L21.4353 59.9689H29.4776C29.2031 59.0305 29.3873 58.0218 29.9207 56.9438C30.5026 55.7675 31.5104 54.4841 32.8399 53.0748C35.4949 50.2607 39.4825 46.8913 44.0624 42.8052C44.7561 41.683 46.3028 40.9591 48.5506 40.5233ZM3.9153 42.5458C5.60892 44.2308 6.6827 45.4707 9.91887 47.2458C13.1684 49.0284 18.5929 51.3459 28.9779 55.1577L29.283 55.2701L29.0587 55.4743L25.1663 59.0177L25.088 59.0895L24.9825 59.0453C18.0608 56.1465 12.819 53.8566 9.26412 51.4011C7.48392 50.1718 6.11594 48.8937 5.17015 47.4666C4.2225 46.0369 3.70492 44.4665 3.61266 42.6645L3.59001 42.2224L3.9153 42.5458ZM2.20214 34.8075C4.41444 36.8169 5.81616 38.3046 10.1003 40.394C14.3984 42.4902 21.5908 45.187 35.3732 49.5882L35.7165 49.6979L35.4561 49.9123L30.1265 54.3056L30.053 54.3661L29.9572 54.3313C20.7813 50.9619 13.8434 48.2984 9.17008 45.3977C6.83092 43.946 5.0459 42.427 3.82964 40.7185C2.61057 39.0062 1.9698 37.1132 1.90576 34.9283L1.89427 34.5279L2.20214 34.8075ZM0.266779 25.4716L42.1027 42.9962L42.3798 43.112L42.1822 43.3019L36.1284 49.1176L36.0556 49.188L35.9511 49.1521C24.4725 45.235 15.7884 42.1278 9.83388 38.6265C6.85382 36.8742 4.54547 35.0164 2.90984 32.899C1.27186 30.7785 0.315652 28.4065 0.0285585 25.6382L0 25.3597L0.266779 25.4716ZM59.5792 20.7333C60.1305 22.5997 60.1348 24.3294 59.6205 26.0168C59.1073 27.7001 58.0817 29.3303 56.5906 31.0082C53.6123 34.3594 48.7397 37.9411 42.2568 42.5454L42.1751 42.6036L42.0831 42.5586L36.5678 39.8554L36.2981 39.723L36.5253 39.5346L59.2953 20.6339L59.4996 20.4648L59.5792 20.7333ZM59.322 6.69932C60.1123 9.43459 60.1045 11.9635 59.3413 14.4274C58.5792 16.8872 57.0671 19.2715 54.868 21.7288C50.4733 26.639 43.2939 31.8809 33.7301 38.6268L33.6479 38.6847L33.5556 38.6389L25.4739 34.6258L25.206 34.4932L25.4331 34.3055L59.0389 6.59958L59.2439 6.43005L59.322 6.69932Z" fill="#D19924"/>
</svg>
