<svg width="188" height="50" viewBox="0 0 188 50" fill="none" xmlns="http://www.w3.org/2000/svg">
<path d="M57.6433 29.1233V30.0518H51.018V29.1233L52.9061 28.8912C53.1579 28.8469 53.3408 28.8028 53.4553 28.7585C53.5698 28.6922 53.6728 28.5484 53.7643 28.3274C53.8557 28.1065 53.9818 27.7526 54.1419 27.2663L60.6985 7.50256H63.6507L70.2417 27.2663C70.4018 27.7526 70.5279 28.1065 70.6194 28.3274C70.7108 28.5484 70.8138 28.6922 70.9283 28.7585C71.0656 28.8028 71.2488 28.8469 71.4776 28.8912L73.3656 29.1233V30.0518H63.891V29.1233L65.7791 28.8912C66.1452 28.8469 66.3399 28.7585 66.3627 28.6259C66.4085 28.4712 66.3055 28.0179 66.0537 27.2663L64.7492 23.1544H56.8195L55.4807 27.2663C55.2519 28.0179 55.1489 28.4712 55.1717 28.6259C55.1945 28.7585 55.3892 28.8469 55.7553 28.8912L57.6433 29.1233ZM57.2314 21.9938H64.3716L60.8358 10.9844L57.2314 21.9938ZM94.4648 8.43106V7.50256H101.124V8.43106L99.2364 8.66319C98.8703 8.70741 98.6528 8.80689 98.5841 8.96163C98.5155 9.09427 98.4812 9.53642 98.4812 10.2881V22.3917C98.4812 25.0445 97.8976 27.0453 96.7304 28.3938C95.5861 29.7202 93.8241 30.3834 91.4439 30.3834C88.6749 30.3834 86.4435 29.6539 84.7499 28.1948C83.0563 26.7357 82.2096 24.6355 82.2096 21.8943V10.2881C82.2096 9.53642 82.1753 9.09427 82.1067 8.96163C82.038 8.80689 81.8205 8.70741 81.4544 8.66319L79.5664 8.43106V7.50256H88.9723V8.43106L87.0842 8.66319C86.7182 8.70741 86.5007 8.80689 86.432 8.96163C86.3633 9.09427 86.329 9.53642 86.329 10.2881V22.1264C86.329 24.6024 86.7981 26.393 87.7365 27.4984C88.6749 28.6039 90.0137 29.1565 91.7529 29.1565C93.4465 29.1565 94.7622 28.637 95.7006 27.5979C96.639 26.5368 97.108 24.8235 97.108 22.458V10.2881C97.108 9.53642 97.0737 9.09427 97.0051 8.96163C96.9364 8.80689 96.7189 8.70741 96.3528 8.66319L94.4648 8.43106ZM110.448 8.43106V7.50256H120.815C123.218 7.50256 125.072 8.02207 126.376 9.06111C127.68 10.1002 128.333 11.4929 128.333 13.2394V14.002C128.333 15.3285 127.955 16.4559 127.2 17.3844C126.445 18.3129 125.358 18.9761 123.939 19.3741L128.23 27.2663C128.504 27.7526 128.71 28.1065 128.848 28.3274C128.985 28.5484 129.111 28.6922 129.225 28.7585C129.363 28.8028 129.546 28.8469 129.774 28.8912L131.319 29.1233V30.0518H124.9L119.716 19.772H117.21V27.2663C117.21 28.0179 117.245 28.4712 117.313 28.6259C117.382 28.7585 117.6 28.8469 117.966 28.8912L119.854 29.1233V30.0518H110.448V29.1233L112.336 28.8912C112.702 28.8469 112.919 28.7585 112.988 28.6259C113.057 28.4712 113.091 28.0179 113.091 27.2663V10.2881C113.091 9.53642 113.057 9.09427 112.988 8.96163C112.919 8.80689 112.702 8.70741 112.336 8.66319L110.448 8.43106ZM120.815 8.66319H117.21V18.6114H120.815C121.822 18.6114 122.588 18.3129 123.115 17.716C123.664 17.097 123.939 15.9696 123.939 14.3337V12.9077C123.939 11.2718 123.664 10.1554 123.115 9.55852C122.588 8.96163 121.822 8.66319 120.815 8.66319ZM155.705 24.3482H156.666V30.0518H139.674V29.1233L141.562 28.8912C141.928 28.8469 142.145 28.7585 142.214 28.6259C142.282 28.4712 142.317 28.0179 142.317 27.2663V10.2881C142.317 9.53642 142.282 9.09427 142.214 8.96163C142.145 8.80689 141.928 8.70741 141.562 8.66319L139.674 8.43106V7.50256H156.323V13.2062H155.361L154.263 9.52536C154.194 9.26008 154.114 9.07218 154.023 8.96163C153.954 8.82899 153.805 8.75161 153.576 8.72951C153.348 8.68528 152.959 8.66319 152.409 8.66319H146.436V18.0808H150.35C150.899 18.0808 151.288 18.0697 151.517 18.0476C151.746 18.0034 151.894 17.9261 151.963 17.8155C152.054 17.6829 152.135 17.4839 152.203 17.2186L152.959 14.5326H153.92V22.7896H152.959L152.203 20.1036C152.135 19.8383 152.054 19.6504 151.963 19.5399C151.894 19.4072 151.746 19.3298 151.517 19.3077C151.288 19.2635 150.899 19.2414 150.35 19.2414H146.436V28.8912H152.753C153.302 28.8912 153.691 28.88 153.92 28.858C154.148 28.8137 154.297 28.7365 154.366 28.6259C154.457 28.4932 154.538 28.2943 154.606 28.029L155.705 24.3482ZM172.166 29.1233V30.0518H165.541V29.1233L167.429 28.8912C167.681 28.8469 167.864 28.8028 167.978 28.7585C168.093 28.6922 168.196 28.5484 168.287 28.3274C168.379 28.1065 168.505 27.7526 168.665 27.2663L175.222 7.50256H178.174L184.765 27.2663C184.925 27.7526 185.051 28.1065 185.142 28.3274C185.234 28.5484 185.337 28.6922 185.451 28.7585C185.589 28.8028 185.772 28.8469 186.001 28.8912L187.889 29.1233V30.0518H178.414V29.1233L180.302 28.8912C180.668 28.8469 180.863 28.7585 180.886 28.6259C180.932 28.4712 180.829 28.0179 180.577 27.2663L179.272 23.1544H171.343L170.004 27.2663C169.775 28.0179 169.672 28.4712 169.695 28.6259C169.718 28.7585 169.912 28.8469 170.278 28.8912L172.166 29.1233ZM171.755 21.9938H178.895L175.359 10.9844L171.755 21.9938Z" fill="#01298F"/>
<path d="M55.2382 45.9088V46.373H51.9255V45.9088L52.8696 45.7927C52.9953 45.7707 53.0871 45.7484 53.1442 45.7264C53.2013 45.6932 53.2528 45.6215 53.2987 45.5109C53.3445 45.4002 53.4073 45.2235 53.4875 44.9803L56.7658 35.0984H58.2419L61.5374 44.9803C61.6176 45.2235 61.6804 45.4002 61.7262 45.5109C61.7721 45.6215 61.8236 45.6932 61.8807 45.7264C61.9493 45.7484 62.0408 45.7707 62.1553 45.7927L63.0993 45.9088V46.373H58.3621V45.9088L59.3061 45.7927C59.4893 45.7707 59.5863 45.7264 59.5979 45.6601C59.6207 45.5826 59.5692 45.3562 59.4434 44.9803L58.7912 42.9243H54.8263L54.1569 44.9803C54.0423 45.3562 53.9909 45.5826 54.0024 45.6601C54.0139 45.7264 54.111 45.7707 54.2942 45.7927L55.2382 45.9088ZM55.0322 42.344H58.6024L56.8345 36.8394L55.0322 42.344ZM74.0272 35.5627V35.0984H78.7302V35.5627L77.7861 35.6787C77.603 35.7008 77.4943 35.7505 77.46 35.828C77.4257 35.8943 77.4085 36.1153 77.4085 36.4912V44.9803C77.4085 45.3562 77.4257 45.5826 77.46 45.6601C77.4943 45.7264 77.603 45.7707 77.7861 45.7927L78.7302 45.9088V46.373H74.0272V45.9088L74.9712 45.7927C75.1544 45.7707 75.263 45.7264 75.2973 45.6601C75.3317 45.5826 75.3488 45.3562 75.3488 44.9803V36.4912C75.3488 36.1153 75.3317 35.8943 75.2973 35.828C75.263 35.7505 75.1544 35.7008 74.9712 35.6787L74.0272 35.5627ZM90.5109 35.5627V35.0984H95.6944C96.8959 35.0984 97.8227 35.3583 98.475 35.8777C99.1272 36.3971 99.4533 37.0935 99.4533 37.9668V38.3482C99.4533 39.0114 99.2645 39.5751 98.8869 40.0394C98.5093 40.5036 97.9657 40.8352 97.2563 41.0342L99.4018 44.9803C99.5392 45.2235 99.6421 45.4002 99.7108 45.5109C99.7794 45.6215 99.8422 45.6932 99.8996 45.7264C99.9683 45.7484 100.06 45.7707 100.174 45.7927L100.947 45.9088V46.373H97.7369L95.1452 41.2331H93.8922V44.9803C93.8922 45.3562 93.9093 45.5826 93.9437 45.6601C93.978 45.7264 94.0866 45.7707 94.2698 45.7927L95.2138 45.9088V46.373H90.5109V45.9088L91.4549 45.7927C91.6378 45.7707 91.7467 45.7264 91.781 45.6601C91.8153 45.5826 91.8325 45.3562 91.8325 44.9803V36.4912C91.8325 36.1153 91.8153 35.8943 91.781 35.828C91.7467 35.7505 91.6378 35.7008 91.4549 35.6787L90.5109 35.5627ZM95.6944 35.6787H93.8922V40.6528H95.6944C96.1978 40.6528 96.581 40.5036 96.8444 40.2052C97.119 39.8956 97.2563 39.3318 97.2563 38.514V37.801C97.2563 36.9831 97.119 36.4248 96.8444 36.1264C96.581 35.828 96.1978 35.6787 95.6944 35.6787ZM121.594 46.373L118.78 37.3202L116.119 46.373H114.626L112.24 36.4912C112.183 36.237 112.137 36.0601 112.103 35.9606C112.068 35.85 112.017 35.7782 111.948 35.7451C111.891 35.7119 111.799 35.6899 111.674 35.6787L110.73 35.5627V35.0984H115.484V35.5627L114.54 35.6787C114.357 35.7008 114.26 35.7451 114.248 35.8114C114.237 35.8777 114.271 36.1044 114.351 36.4912L116.136 44.2176L118.762 35.0984H120.187L122.985 44.0518L124.804 36.4912C124.896 36.1044 124.93 35.8777 124.907 35.8114C124.884 35.7451 124.787 35.7008 124.615 35.6787L123.671 35.5627V35.0984H127.001V35.5627L126.057 35.6787C125.931 35.6899 125.84 35.7119 125.782 35.7451C125.725 35.7782 125.674 35.85 125.628 35.9606C125.594 36.0601 125.548 36.237 125.491 36.4912L123.105 46.373H121.594ZM139.409 45.9088V46.373H136.096V45.9088L137.04 45.7927C137.166 45.7707 137.258 45.7484 137.315 45.7264C137.372 45.6932 137.424 45.6215 137.47 45.5109C137.515 45.4002 137.578 45.2235 137.658 44.9803L140.937 35.0984H142.413L145.708 44.9803C145.788 45.2235 145.851 45.4002 145.897 45.5109C145.943 45.6215 145.994 45.6932 146.052 45.7264C146.12 45.7484 146.212 45.7707 146.326 45.7927L147.27 45.9088V46.373H142.533V45.9088L143.477 45.7927C143.66 45.7707 143.757 45.7264 143.769 45.6601C143.792 45.5826 143.74 45.3562 143.614 44.9803L142.962 42.9243H138.997L138.328 44.9803C138.213 45.3562 138.162 45.5826 138.173 45.6601C138.185 45.7264 138.282 45.7707 138.465 45.7927L139.409 45.9088ZM139.203 42.344H142.773L141.005 36.8394L139.203 42.344ZM163.908 45.9088V46.373H159.205V45.9088L160.149 45.7927C160.333 45.7707 160.441 45.7264 160.476 45.6601C160.51 45.5826 160.527 45.3562 160.527 44.9803V41.5482L157.798 36.4912C157.661 36.237 157.558 36.0601 157.489 35.9606C157.42 35.85 157.352 35.7782 157.283 35.7451C157.226 35.7119 157.14 35.6899 157.026 35.6787L156.082 35.5627V35.0984H160.973V35.5627L160.029 35.6787C159.858 35.7008 159.772 35.7505 159.772 35.828C159.772 35.8943 159.863 36.1153 160.046 36.4912L162.261 40.7689L164.561 36.4912C164.755 36.1264 164.847 35.9054 164.835 35.828C164.835 35.7505 164.749 35.7008 164.578 35.6787L163.634 35.5627V35.0984H166.981V35.5627L166.037 35.6787C165.922 35.6899 165.831 35.7119 165.762 35.7451C165.705 35.7782 165.642 35.85 165.573 35.9606C165.516 36.0601 165.419 36.237 165.281 36.4912L162.587 41.515V44.9803C162.587 45.3562 162.604 45.5826 162.638 45.6601C162.673 45.7264 162.781 45.7707 162.964 45.7927L163.908 45.9088ZM181.832 45.9585C182.518 45.9585 183.085 45.8039 183.531 45.4943C183.989 45.1738 184.217 44.6764 184.217 44.002C184.217 43.5046 184.063 43.0901 183.754 42.7585C183.457 42.4269 182.919 42.1505 182.141 41.9295L180.544 41.4653C179.743 41.2331 179.125 40.8352 178.691 40.2715C178.267 39.6966 178.056 38.9837 178.056 38.1326C178.056 37.5689 178.187 37.0438 178.45 36.5575C178.725 36.0712 179.137 35.6787 179.686 35.3803C180.247 35.0818 180.951 34.9326 181.797 34.9326C182.724 34.9326 183.474 35.0984 184.046 35.43C184.618 35.7505 185.019 36.1707 185.247 36.6901C185.476 37.2096 185.533 37.7679 185.419 38.3647L183.445 38.7129C183.628 37.685 183.548 36.8945 183.205 36.3419C182.873 35.7894 182.329 35.5129 181.574 35.5129C180.991 35.5129 180.522 35.6787 180.167 36.0103C179.823 36.3419 179.652 36.8173 179.652 37.4362C179.652 37.9448 179.801 38.3925 180.098 38.7793C180.407 39.166 180.91 39.4645 181.609 39.6746L183.205 40.1388C184.075 40.3821 184.727 40.7523 185.161 41.2497C185.596 41.736 185.814 42.4158 185.814 43.2891C185.814 43.908 185.665 44.4663 185.367 44.9637C185.081 45.45 184.641 45.837 184.046 46.1243C183.462 46.4008 182.73 46.5388 181.849 46.5388C181.208 46.5388 180.601 46.4505 180.029 46.2735C179.457 46.0857 178.977 45.7816 178.588 45.3616C178.21 44.9417 177.97 44.3723 177.867 43.6539L179.017 43.2559C179.074 43.9634 179.234 44.516 179.497 44.914C179.772 45.3008 180.11 45.5717 180.51 45.7264C180.922 45.8811 181.363 45.9585 181.832 45.9585Z" fill="#D19924"/>
<path fill-rule="evenodd" clip-rule="evenodd" d="M36.5101 27.7557C38.2235 27.4531 40.5198 27.3472 43.3457 27.3941L43.3945 27.6436C41.9197 28.229 40.8604 28.7169 40.0075 29.2884C39.1657 29.8524 38.5212 30.5005 37.8805 31.4125C37.5799 34.7443 36.2851 37.2267 33.4181 39.5109C30.5517 41.7948 26.1131 43.8809 19.5345 46.4353L19.4277 46.4767L19.369 46.3811L16.239 41.2702L16.1193 41.0746H22.1672C21.9607 40.4319 22.0993 39.741 22.5003 39.0026C22.9379 38.1969 23.6958 37.3179 24.6956 36.3526C26.6921 34.4252 29.6909 32.1174 33.1349 29.3187C33.6566 28.55 34.8197 28.0542 36.5101 27.7557ZM2.94431 29.141C4.2179 30.2951 5.02539 31.1443 7.45899 32.3601C9.90264 33.5811 13.9819 35.1684 21.7913 37.7793L22.0208 37.8562L21.8521 37.9961L18.9251 40.4231L18.8662 40.4723L18.7868 40.442C13.5817 38.4565 9.63987 36.8881 6.96662 35.2062C5.6279 34.3643 4.59919 33.4889 3.88795 32.5114C3.17532 31.5322 2.7861 30.4565 2.71672 29.2223L2.69969 28.9195L2.94431 29.141ZM1.65601 23.8408C3.31966 25.2171 4.37375 26.236 7.59544 27.6671C10.8276 29.1029 16.2363 30.95 26.6007 33.9645L26.8588 34.0397L26.663 34.1866L22.6551 37.1956L22.5999 37.2371L22.5278 37.2132C15.6276 34.9055 10.4103 33.0811 6.8959 31.0943C5.13685 30.1 3.79452 29.0596 2.87989 27.8894C1.96315 26.7166 1.48129 25.42 1.43313 23.9235L1.42449 23.6493L1.65601 23.8408ZM0.200617 17.4464L31.6612 29.4495L31.8696 29.5288L31.721 29.6588L27.1685 33.6423L27.1138 33.6904L27.0353 33.6658C18.4033 30.9829 11.8729 28.8547 7.39508 26.4565C5.15407 25.2564 3.41819 23.9839 2.1882 22.5336C0.956437 21.0812 0.237371 19.4565 0.021476 17.5604L0 17.3697L0.200617 17.4464ZM44.8035 14.2009C45.2182 15.4793 45.2214 16.664 44.8346 17.8198C44.4487 18.9727 43.6774 20.0893 42.5561 21.2385C40.3165 23.5339 36.6522 25.9871 31.7771 29.1407L31.7157 29.1806L31.6465 29.1498L27.499 27.2982L27.2962 27.2075L27.467 27.0785L44.5901 14.1329L44.7437 14.017L44.8035 14.2009ZM44.6102 4.58861C45.2045 6.46208 45.1986 8.19417 44.6247 9.88179C44.0515 11.5666 42.9144 13.1997 41.2608 14.8827C37.9559 18.2459 32.557 21.8362 25.365 26.4568L25.3032 26.4964L25.2338 26.4651L19.1563 23.7163L18.9549 23.6255L19.1257 23.497L44.3972 4.52029L44.5514 4.40417L44.6102 4.58861Z" fill="#D19924"/>
</svg>
